<mxfile host="65bd71144e">
    <diagram id="RE21rIBLmn_Y9wnIyPNR" name="Page-1">
        <mxGraphModel dx="797" dy="647" grid="1" gridSize="10" guides="1" tooltips="1" connect="1" arrows="1" fold="1" page="1" pageScale="1" pageWidth="827" pageHeight="1169" background="#000000" math="0" shadow="0">
            <root>
                <mxCell id="0"/>
                <mxCell id="1" parent="0"/>
                <mxCell id="37" value="" style="edgeStyle=none;html=1;strokeColor=#FFFFFF;fontColor=#FFFFFF;" edge="1" parent="1" source="2" target="36">
                    <mxGeometry relative="1" as="geometry"/>
                </mxCell>
                <mxCell id="2" value="&lt;div style=&quot;&quot;&gt;&lt;span style=&quot;font-size: 16px; background-color: rgb(0, 0, 0);&quot;&gt;&lt;font style=&quot;&quot; color=&quot;#f3f8ff&quot; face=&quot;Söhne, ui-sans-serif, system-ui, -apple-system, Segoe UI, Roboto, Ubuntu, Cantarell, Noto Sans, sans-serif, Helvetica Neue, Arial, Apple Color Emoji, Segoe UI Emoji, Segoe UI Symbol, Noto Color Emoji&quot;&gt;Ontvangst van het verzoek&lt;/font&gt;&lt;/span&gt;&lt;/div&gt;" style="rounded=0;whiteSpace=wrap;html=1;align=center;" parent="1" vertex="1">
                    <mxGeometry x="20" y="20" width="100" height="60" as="geometry"/>
                </mxCell>
                <mxCell id="6" value="" style="edgeStyle=none;html=1;strokeColor=#FFFFFF;" parent="1" source="3" target="5" edge="1">
                    <mxGeometry relative="1" as="geometry"/>
                </mxCell>
                <mxCell id="3" value="&lt;div style=&quot;&quot;&gt;&lt;span style=&quot;font-size: 16px; background-color: rgb(0, 0, 0);&quot;&gt;&lt;font style=&quot;&quot; color=&quot;#f3f8ff&quot; face=&quot;Söhne, ui-sans-serif, system-ui, -apple-system, Segoe UI, Roboto, Ubuntu, Cantarell, Noto Sans, sans-serif, Helvetica Neue, Arial, Apple Color Emoji, Segoe UI Emoji, Segoe UI Symbol, Noto Color Emoji&quot;&gt;Parsen van het verzoek&lt;/font&gt;&lt;/span&gt;&lt;/div&gt;" style="whiteSpace=wrap;html=1;align=center;" parent="1" vertex="1">
                    <mxGeometry x="195" y="160" width="120" height="60" as="geometry"/>
                </mxCell>
                <mxCell id="10" value="" style="edgeStyle=none;html=1;strokeColor=#FFFFFF;" parent="1" source="5" target="9" edge="1">
                    <mxGeometry relative="1" as="geometry"/>
                </mxCell>
                <mxCell id="5" value="&lt;font color=&quot;#ffffff&quot; style=&quot;font-size: 16px; background-color: rgb(0, 0, 0);&quot;&gt;Valideren van verplichte velden&lt;/font&gt;" style="whiteSpace=wrap;html=1;align=center;" parent="1" vertex="1">
                    <mxGeometry x="400" y="160" width="120" height="60" as="geometry"/>
                </mxCell>
                <mxCell id="12" value="" style="edgeStyle=none;html=1;entryX=0.5;entryY=0;entryDx=0;entryDy=0;strokeColor=#FFFFFF;" parent="1" source="9" target="17" edge="1">
                    <mxGeometry relative="1" as="geometry">
                        <mxPoint x="360" y="760" as="targetPoint"/>
                    </mxGeometry>
                </mxCell>
                <mxCell id="13" value="&lt;font style=&quot;font-size: 12px;&quot;&gt;JA&lt;/font&gt;" style="edgeLabel;html=1;align=center;verticalAlign=middle;resizable=0;points=[];" parent="12" vertex="1" connectable="0">
                    <mxGeometry x="-0.2666" y="-1" relative="1" as="geometry">
                        <mxPoint as="offset"/>
                    </mxGeometry>
                </mxCell>
                <mxCell id="15" value="&lt;font style=&quot;font-size: 13px;&quot;&gt;Nee&lt;/font&gt;" style="edgeStyle=none;html=1;entryX=0.5;entryY=1;entryDx=0;entryDy=0;strokeColor=#FFFFFF;" parent="1" source="9" target="3" edge="1">
                    <mxGeometry relative="1" as="geometry">
                        <mxPoint x="510" y="570" as="targetPoint"/>
                        <Array as="points">
                            <mxPoint x="550" y="300"/>
                        </Array>
                    </mxGeometry>
                </mxCell>
                <mxCell id="9" value="&lt;div style=&quot;&quot;&gt;&lt;span style=&quot;font-size: 16px; background-color: rgb(0, 0, 0);&quot;&gt;&lt;font style=&quot;&quot; color=&quot;#f3f8ff&quot; face=&quot;Söhne, ui-sans-serif, system-ui, -apple-system, Segoe UI, Roboto, Ubuntu, Cantarell, Noto Sans, sans-serif, Helvetica Neue, Arial, Apple Color Emoji, Segoe UI Emoji, Segoe UI Symbol, Noto Color Emoji&quot;&gt;Is 'gender' ingevuld?&lt;/font&gt;&lt;/span&gt;&lt;/div&gt;" style="rhombus;whiteSpace=wrap;html=1;align=center;" parent="1" vertex="1">
                    <mxGeometry x="610" y="120" width="110" height="140" as="geometry"/>
                </mxCell>
                <mxCell id="18" value="&lt;font style=&quot;font-size: 12px;&quot;&gt;JA&lt;/font&gt;" style="edgeStyle=none;html=1;entryX=0.5;entryY=0;entryDx=0;entryDy=0;strokeColor=#FFFFFF;" parent="1" source="17" target="20" edge="1">
                    <mxGeometry relative="1" as="geometry">
                        <mxPoint x="360" y="1010" as="targetPoint"/>
                    </mxGeometry>
                </mxCell>
                <mxCell id="25" value="&lt;font style=&quot;font-size: 12px;&quot;&gt;Nee&lt;/font&gt;" style="edgeStyle=none;html=1;exitX=0;exitY=0.5;exitDx=0;exitDy=0;entryX=0.5;entryY=1;entryDx=0;entryDy=0;strokeColor=#FFFFFF;" parent="1" source="17" target="3" edge="1">
                    <mxGeometry relative="1" as="geometry"/>
                </mxCell>
                <mxCell id="17" value="&lt;div style=&quot;&quot;&gt;&lt;span style=&quot;font-size: 16px; background-color: rgb(0, 0, 0);&quot;&gt;&lt;font style=&quot;&quot; color=&quot;#ffffff&quot; face=&quot;Söhne, ui-sans-serif, system-ui, -apple-system, Segoe UI, Roboto, Ubuntu, Cantarell, Noto Sans, sans-serif, Helvetica Neue, Arial, Apple Color Emoji, Segoe UI Emoji, Segoe UI Symbol, Noto Color Emoji&quot;&gt;Is 'fullName' ingevuld?&lt;/font&gt;&lt;/span&gt;&lt;/div&gt;" style="rhombus;whiteSpace=wrap;html=1;align=center;" parent="1" vertex="1">
                    <mxGeometry x="600" y="320" width="130" height="150" as="geometry"/>
                </mxCell>
                <mxCell id="26" value="&lt;font style=&quot;font-size: 12px;&quot;&gt;Nee&lt;/font&gt;" style="edgeStyle=none;html=1;entryX=0.5;entryY=1;entryDx=0;entryDy=0;strokeColor=#FFFFFF;" parent="1" source="20" target="3" edge="1">
                    <mxGeometry relative="1" as="geometry"/>
                </mxCell>
                <mxCell id="27" value="&lt;font style=&quot;font-size: 12px;&quot;&gt;Ja&lt;/font&gt;" style="edgeStyle=none;html=1;exitX=0;exitY=0.5;exitDx=0;exitDy=0;entryX=1;entryY=0.5;entryDx=0;entryDy=0;strokeColor=#FFFFFF;" parent="1" source="20" target="28" edge="1">
                    <mxGeometry relative="1" as="geometry">
                        <mxPoint x="470" y="585" as="targetPoint"/>
                    </mxGeometry>
                </mxCell>
                <mxCell id="20" value="&lt;font color=&quot;#ffffff&quot; style=&quot;font-size: 16px; background-color: rgb(0, 0, 0);&quot;&gt;Is 'email' ingevuld?&lt;/font&gt;" style="rhombus;whiteSpace=wrap;html=1;" parent="1" vertex="1">
                    <mxGeometry x="600" y="530" width="130" height="110" as="geometry"/>
                </mxCell>
                <mxCell id="29" value="Nee" style="edgeStyle=none;html=1;exitX=0.5;exitY=0;exitDx=0;exitDy=0;entryX=0.5;entryY=1;entryDx=0;entryDy=0;strokeColor=#FFFFFF;" parent="1" source="28" target="3" edge="1">
                    <mxGeometry relative="1" as="geometry"/>
                </mxCell>
                <mxCell id="31" value="&lt;font style=&quot;font-size: 12px;&quot;&gt;Ja&lt;/font&gt;" style="edgeStyle=none;html=1;exitX=0;exitY=0.5;exitDx=0;exitDy=0;entryX=1;entryY=0.5;entryDx=0;entryDy=0;strokeColor=#FFFFFF;" parent="1" source="28" target="30" edge="1">
                    <mxGeometry relative="1" as="geometry"/>
                </mxCell>
                <mxCell id="28" value="&lt;font color=&quot;#fafafa&quot; style=&quot;font-size: 16px; background-color: rgb(0, 0, 0);&quot;&gt;Is 'phone' ingevuld?&lt;/font&gt;" style="rhombus;whiteSpace=wrap;html=1;" parent="1" vertex="1">
                    <mxGeometry x="350" y="535" width="120" height="100" as="geometry"/>
                </mxCell>
                <mxCell id="32" value="Nee" style="edgeStyle=none;html=1;exitX=0.5;exitY=0;exitDx=0;exitDy=0;entryX=0.5;entryY=1;entryDx=0;entryDy=0;fontSize=12;strokeColor=#FFFFFF;" parent="1" source="30" target="3" edge="1">
                    <mxGeometry relative="1" as="geometry"/>
                </mxCell>
                <mxCell id="30" value="&lt;div style=&quot;&quot;&gt;&lt;font style=&quot;background-color: rgb(0, 0, 0);&quot; color=&quot;#ffffff&quot; face=&quot;Söhne, ui-sans-serif, system-ui, -apple-system, Segoe UI, Roboto, Ubuntu, Cantarell, Noto Sans, sans-serif, Helvetica Neue, Arial, Apple Color Emoji, Segoe UI Emoji, Segoe UI Symbol, Noto Color Emoji&quot;&gt;Zijn adresvelden ('street', 'house number', 'postal code', 'city', 'province', 'country') ingevuld?&lt;/font&gt;&lt;/div&gt;" style="rhombus;whiteSpace=wrap;html=1;align=center;shadow=0;" parent="1" vertex="1">
                    <mxGeometry x="60" y="510" width="200" height="150" as="geometry"/>
                </mxCell>
                <mxCell id="34" value="Ja" style="edgeStyle=none;html=1;exitX=0.5;exitY=1;exitDx=0;exitDy=0;entryX=0.5;entryY=0;entryDx=0;entryDy=0;fontSize=12;strokeColor=#FFFFFF;" parent="1" source="30" target="33" edge="1">
                    <mxGeometry relative="1" as="geometry"/>
                </mxCell>
                <mxCell id="33" value="&lt;div style=&quot;&quot;&gt;&lt;span style=&quot;font-size: 16px; background-color: rgb(0, 0, 0);&quot;&gt;&lt;font style=&quot;&quot; color=&quot;#f3f8ff&quot; face=&quot;Söhne, ui-sans-serif, system-ui, -apple-system, Segoe UI, Roboto, Ubuntu, Cantarell, Noto Sans, sans-serif, Helvetica Neue, Arial, Apple Color Emoji, Segoe UI Emoji, Segoe UI Symbol, Noto Color Emoji&quot;&gt;Verzenden van de reactie&lt;/font&gt;&lt;/span&gt;&lt;/div&gt;" style="whiteSpace=wrap;html=1;fontSize=12;align=center;" parent="1" vertex="1">
                    <mxGeometry x="100" y="730" width="120" height="60" as="geometry"/>
                </mxCell>
                <mxCell id="39" value="&lt;font style=&quot;font-size: 12px;&quot;&gt;POST&lt;/font&gt;" style="edgeStyle=none;html=1;exitX=0.5;exitY=1;exitDx=0;exitDy=0;entryX=0.5;entryY=0;entryDx=0;entryDy=0;strokeColor=#FFFFFF;fontColor=default;" edge="1" parent="1" source="36" target="3">
                    <mxGeometry relative="1" as="geometry"/>
                </mxCell>
                <mxCell id="41" style="edgeStyle=none;html=1;exitX=1;exitY=0.5;exitDx=0;exitDy=0;entryX=0;entryY=0.5;entryDx=0;entryDy=0;strokeColor=#FFFFFF;fontSize=11;fontColor=default;" edge="1" parent="1" source="36" target="40">
                    <mxGeometry relative="1" as="geometry"/>
                </mxCell>
                <mxCell id="42" value="&lt;font style=&quot;font-size: 12px;&quot;&gt;GET&lt;/font&gt;" style="edgeLabel;html=1;align=center;verticalAlign=middle;resizable=0;points=[];fontSize=11;fontColor=default;" vertex="1" connectable="0" parent="41">
                    <mxGeometry x="-0.2999" y="1" relative="1" as="geometry">
                        <mxPoint as="offset"/>
                    </mxGeometry>
                </mxCell>
                <mxCell id="36" value="&lt;font style=&quot;background-color: rgb(0, 0, 0);&quot; color=&quot;#ffffff&quot;&gt;Is het verzoek een GET of POST?&lt;/font&gt;" style="rhombus;whiteSpace=wrap;html=1;shadow=0;labelBackgroundColor=#000000;" vertex="1" parent="1">
                    <mxGeometry x="190" width="130" height="100" as="geometry"/>
                </mxCell>
                <mxCell id="40" value="&lt;font style=&quot;font-size: 16px; background-color: rgb(0, 0, 0);&quot;&gt;Toon een leeg formulier&lt;/font&gt;" style="whiteSpace=wrap;html=1;shadow=0;labelBackgroundColor=#000000;fontColor=#FFFFFF;" vertex="1" parent="1">
                    <mxGeometry x="430" y="20" width="120" height="60" as="geometry"/>
                </mxCell>
            </root>
        </mxGraphModel>
    </diagram>
</mxfile>